<svg width="1024" height="1024" viewBox="0 0 1024 1024" fill="none" xmlns="http://www.w3.org/2000/svg">
<rect width="1024" height="1024" fill="white"/>
<path d="M188.134 339.471C227.605 167.977 400.799 121.701 482.463 120L439.929 176.144C521.592 177.845 577.736 262.911 610.061 322.457C633.88 380.302 780.193 501.096 839.74 524.915C899.286 548.733 950.325 514.707 972.443 507.901C994.56 501.096 986.053 514.707 987.755 524.915C989.456 535.123 958.832 591.266 918 647.41C877.169 703.554 769.985 757.996 735.959 773.308C701.932 788.62 632.178 800.529 533.502 797.126C434.825 793.724 342.954 737.58 297.018 701.852C251.083 666.124 138.796 553.837 188.134 339.471Z" fill="url(#paint0_radial_549_25)"/>
<path d="M496.041 337.77C534.151 295.577 587.913 309.981 610.03 322.458C619.671 332.099 642.016 355.804 654.265 373.497C669.577 395.614 744.435 450.057 775.059 463.667C805.683 477.278 836.307 475.577 853.32 478.979C870.333 482.382 868.632 487.486 865.229 502.798C861.827 518.11 771.657 569.149 744.435 584.461C717.214 599.773 679.785 623.692 598.122 611.682C540.277 603.176 472.223 524.915 455.209 487.486C438.196 450.057 448.404 390.511 496.041 337.77Z" fill="url(#paint1_linear_549_25)"/>
<path d="M35 409.217L188.119 341.164C184.036 356.136 181.881 374.624 181.314 381.996L35 409.217Z" fill="#897F76"/>
<circle cx="171.099" cy="359.879" r="3.40264" fill="#070707"/>
<ellipse cx="303.793" cy="341.157" rx="44.2344" ry="52.741" fill="black"/>
<circle cx="303.79" cy="319.049" r="13.6106" fill="white"/>
<path d="M416.137 871.977H499.502L536.931 800.522L569.256 798.82L535.23 871.977H570.958C579.464 871.977 582.867 882.185 582.867 888.99C582.867 894.435 573.793 900.333 569.256 902.601H416.137C409.332 902.601 409.332 890.692 409.332 885.588C409.332 881.505 413.869 874.813 416.137 871.977Z" fill="#AA937E"/>
<path d="M473.983 873.674H557.348L594.777 802.219L627.102 800.518L593.076 873.674H628.803C637.31 873.674 640.713 883.882 640.713 890.688C640.713 896.132 631.639 902.03 627.102 904.298H473.983C467.178 904.298 467.178 892.389 467.178 887.285C467.178 883.202 471.715 876.51 473.983 873.674Z" fill="#B19A84"/>
<defs>
<radialGradient id="paint0_radial_549_25" cx="0" cy="0" r="1" gradientUnits="userSpaceOnUse" gradientTransform="translate(677.535 346.483) rotate(131.66) scale(544.865 966.92)">
<stop offset="0.0263478" stop-color="#897F75"/>
<stop offset="0.538541" stop-color="#DEDAD4"/>
<stop offset="0.86124" stop-color="#F2F4F3"/>
</radialGradient>
<linearGradient id="paint1_linear_549_25" x1="686.59" y1="407.524" x2="543.679" y2="577.656" gradientUnits="userSpaceOnUse">
<stop stop-color="#AE9883"/>
<stop offset="1" stop-color="#A9927D"/>
</linearGradient>
</defs>
</svg>
