<svg width="300" height="300" viewBox="0 0 300 300" fill="none" xmlns="http://www.w3.org/2000/svg">
<rect width="300" height="300" fill="#0C1116"/>
<g clip-path="url(#clip0_1_69)">
<path d="M259.51 146.47L239.193 126.154C240.354 130.239 243.155 142.811 243.316 144.823L259.51 146.47Z" fill="#A79772"/>
<path fill-rule="evenodd" clip-rule="evenodd" d="M224.224 201.419L224.393 201.202L224.543 200.972C240.488 176.635 245.827 155.5 243.78 137.283C241.733 119.058 232.411 104.803 221.079 94.0045C198.71 72.6905 167.264 63.6535 162.017 62.2435C160.56 61.8515 158.832 61.8915 157.182 62.6685C155.581 63.4225 154.507 64.6555 153.892 65.8825C152.706 68.2475 152.974 70.9485 154.293 72.9865L158.956 80.1885C157.63 80.4185 156.278 80.7865 154.905 81.3145C144.752 85.2195 136.621 96.8145 131.069 117.636C124.781 141.216 112.454 153.224 100.574 159.536C88.4342 165.985 76.1662 166.786 69.8902 166.786C64.5502 166.786 60.1452 165.118 57.0232 163.396C55.4692 162.539 54.2742 161.689 53.4942 161.08C53.1062 160.776 52.8262 160.537 52.6622 160.391C52.5802 160.318 52.5272 160.27 52.5052 160.249L52.4972 160.241C49.9382 157.748 45.8782 157.672 43.2262 160.074C40.5622 162.486 40.2472 166.559 42.5082 169.353C42.5082 169.353 42.5092 169.355 42.5122 169.358L42.5182 169.366L42.5382 169.39L42.6042 169.471C42.6612 169.541 42.7422 169.639 42.8462 169.765C43.0542 170.016 43.3572 170.379 43.7512 170.842C44.5382 171.769 45.6872 173.099 47.1682 174.749C50.1292 178.047 54.4222 182.634 59.7962 187.84C70.5072 198.216 85.6812 211.218 103.286 221.333C120.835 231.416 141.363 238.953 162.587 237.562C184.133 236.15 205.416 225.6 224.224 201.419Z" fill="url(#paint0_linear_1_69)"/>
<path fill-rule="evenodd" clip-rule="evenodd" d="M224.224 201.419L224.393 201.202L224.543 200.972C240.488 176.635 245.827 155.5 243.78 137.283C241.733 119.058 232.411 104.803 221.079 94.0045C198.71 72.6905 167.264 63.6535 162.017 62.2435C160.56 61.8515 158.832 61.8915 157.182 62.6685C155.581 63.4225 154.507 64.6555 153.892 65.8825C152.706 68.2475 152.974 70.9485 154.293 72.9865L158.956 80.1885C157.63 80.4185 156.278 80.7865 154.905 81.3145C144.752 85.2195 136.621 96.8145 131.069 117.636C124.781 141.216 112.454 153.224 100.574 159.536C88.4342 165.985 76.1662 166.786 69.8902 166.786C64.5502 166.786 60.1452 165.118 57.0232 163.396C55.4692 162.539 54.2742 161.689 53.4942 161.08C53.1062 160.776 52.8262 160.537 52.6622 160.391C52.5802 160.318 52.5272 160.27 52.5052 160.249L52.4972 160.241C49.9382 157.748 45.8782 157.672 43.2262 160.074C40.5622 162.486 40.2472 166.559 42.5082 169.353C42.5082 169.353 42.5092 169.355 42.5122 169.358L42.5182 169.366L42.5382 169.39L42.6042 169.471C42.6612 169.541 42.7422 169.639 42.8462 169.765C43.0542 170.016 43.3572 170.379 43.7512 170.842C44.5382 171.769 45.6872 173.099 47.1682 174.749C50.1292 178.047 54.4222 182.634 59.7962 187.84C70.5072 198.216 85.6812 211.218 103.286 221.333C120.835 231.416 141.363 238.953 162.587 237.562C184.133 236.15 205.416 225.6 224.224 201.419Z" fill="url(#paint1_linear_1_69)"/>
<path fill-rule="evenodd" clip-rule="evenodd" d="M120.559 133.558C125.146 125.111 134.094 119.375 144.383 119.375C158.003 119.375 169.275 129.427 171.186 142.517C177.312 162.925 148.312 187.411 121.017 187.411C96.9782 187.411 57.3492 169.46 73.6122 153.55C78.6252 148.645 84.2222 148.671 90.2202 148.698C94.6482 148.718 99.2942 148.739 104.087 146.778C109.922 144.39 113.77 140.444 117.468 136.652C118.497 135.596 119.514 134.553 120.559 133.558Z" fill="#A78F72"/>
<path d="M205.06 137.359C199.45 137.359 194.902 132.811 194.902 127.2C194.902 121.59 199.45 117.042 205.06 117.042C210.671 117.042 215.219 121.59 215.219 127.2C215.219 132.811 210.671 137.359 205.06 137.359Z" fill="#161619"/>
</g>
<defs>
<linearGradient id="paint0_linear_1_69" x1="123.895" y1="133.32" x2="215.924" y2="213.988" gradientUnits="userSpaceOnUse">
<stop stop-color="#D1C2B0"/>
<stop offset="1" stop-color="#FBEDDD"/>
</linearGradient>
<linearGradient id="paint1_linear_1_69" x1="498.487" y1="133.319" x2="535.292" y2="311.367" gradientUnits="userSpaceOnUse">
<stop stop-color="#D1C2B0"/>
<stop offset="1" stop-color="#FBEDDD"/>
</linearGradient>
<clipPath id="clip0_1_69">
<rect width="218.51" height="175.727" fill="white" transform="translate(41 62)"/>
</clipPath>
</defs>
</svg>
