<svg width="300" height="300" viewBox="0 0 300 300" fill="none" xmlns="http://www.w3.org/2000/svg">
<rect width="300" height="300" fill="white"/>
<path d="M260.483 142.672L239.797 121.986C240.979 126.146 243.831 138.947 243.995 140.995L260.483 142.672Z" fill="#A79772"/>
<path fill-rule="evenodd" clip-rule="evenodd" d="M224.555 198.619L224.727 198.399L224.88 198.165C241.115 173.386 246.551 151.866 244.467 133.317C242.383 114.762 232.892 100.248 221.353 89.2533C198.578 67.5512 166.559 58.3497 161.218 56.9143C159.734 56.5156 157.975 56.5558 156.294 57.3472C154.665 58.1147 153.571 59.3704 152.944 60.6197C151.737 63.0275 152.01 65.7778 153.353 67.8526L158.101 75.1858C156.751 75.42 155.374 75.7948 153.976 76.3324C143.639 80.3084 135.359 92.1138 129.706 113.313C123.304 137.322 110.753 149.549 98.6571 155.975C86.2964 162.542 73.8055 163.357 67.4155 163.357C61.9781 163.357 57.4926 161.658 54.3146 159.905C52.7324 159.033 51.5152 158.168 50.7211 157.547C50.3258 157.238 50.0409 156.994 49.8737 156.846C49.7903 156.772 49.7368 156.722 49.7141 156.701L49.7061 156.693C47.1003 154.155 42.9664 154.077 40.2664 156.523C37.5545 158.979 37.2335 163.126 39.535 165.971L44.895 161.634C39.535 165.971 39.5368 165.973 39.5391 165.976L39.5456 165.984L39.5657 166.008L39.6336 166.092C39.6911 166.162 39.7732 166.262 39.8794 166.39C40.0916 166.646 40.4 167.015 40.8007 167.487C41.6019 168.431 42.7725 169.785 44.2804 171.465C47.2947 174.823 51.6662 179.493 57.1377 184.794C68.0437 195.359 83.4929 208.597 101.419 218.896C119.287 229.162 140.188 236.836 161.798 235.42C183.736 233.982 205.406 223.241 224.555 198.619ZM58.0918 176.043C49.7496 167.633 44.8954 161.633 44.8954 161.633C44.8954 161.633 44.8957 161.634 44.8962 161.634C45.4961 162.374 146.924 287.195 219.111 194.384C244.999 154.871 240.984 126.127 226.659 105.812C240.986 126.127 245.002 154.871 219.113 194.386C162.52 267.148 87.9558 206.15 58.0918 176.043Z" fill="url(#paint0_linear_1184_12180)"/>
<path fill-rule="evenodd" clip-rule="evenodd" d="M170.553 138.648C176.79 159.428 147.262 184.358 119.472 184.358C94.9951 184.358 54.6461 166.081 71.2045 149.882C76.3091 144.888 82.0074 144.914 88.1142 144.941C92.6228 144.962 97.3541 144.983 102.233 142.986C108.175 140.555 112.093 136.537 115.858 132.676C116.905 131.602 117.941 130.539 119.006 129.527C123.675 120.925 132.787 115.085 143.262 115.085C157.13 115.085 168.607 125.32 170.553 138.648Z" fill="#A78F72"/>
<path d="M205.044 133.395C199.331 133.395 194.701 128.764 194.701 123.052C194.701 117.34 199.331 112.709 205.044 112.709C210.756 112.709 215.387 117.34 215.387 123.052C215.387 128.764 210.756 133.395 205.044 133.395Z" fill="#161619"/>
<defs>
<linearGradient id="paint0_linear_1184_12180" x1="122.403" y1="129.283" x2="216.105" y2="211.417" gradientUnits="userSpaceOnUse">
<stop stop-color="#D1C2B0"/>
<stop offset="1" stop-color="#FBEDDD"/>
</linearGradient>
</defs>
</svg>
