<svg width="220" height="220" viewBox="0 0 220 220" fill="none" xmlns="http://www.w3.org/2000/svg">
<path d="M218.51 102.803L198.193 82.4868C199.354 86.5722 202.155 99.1445 202.316 101.156L218.51 102.803Z" fill="#A79772"/>
<path fill-rule="evenodd" clip-rule="evenodd" d="M183.224 157.752L183.393 157.535L183.543 157.305C199.488 132.968 204.827 111.833 202.78 93.6157C200.733 75.3913 191.411 61.1363 180.079 50.3384C157.71 29.0239 126.264 19.9867 121.017 18.5768C119.56 18.1852 117.832 18.2248 116.182 19.0021C114.581 19.7559 113.507 20.9891 112.892 22.2161C111.706 24.5809 111.974 27.2821 113.293 29.3198L117.956 36.5221C116.63 36.7521 115.278 37.1202 113.905 37.6482C103.752 41.5532 95.6209 53.1478 90.0686 73.9687C83.7807 97.5486 71.4542 109.557 59.574 115.869C47.434 122.318 35.1661 123.119 28.8902 123.119C23.5499 123.119 19.1445 121.451 16.0232 119.729C14.4693 118.872 13.2739 118.022 12.4939 117.413C12.1057 117.109 11.8259 116.87 11.6617 116.724C11.5798 116.651 11.5272 116.603 11.5049 116.582L11.497 116.574C8.93782 114.081 4.87771 114.005 2.22588 116.407C-0.43751 118.819 -0.752806 122.892 1.50754 125.686L6.7719 121.426C1.50755 125.686 1.50941 125.688 1.51165 125.691L1.51805 125.699L1.53772 125.723L1.60439 125.804C1.66093 125.874 1.74156 125.972 1.84579 126.098C2.05425 126.349 2.35719 126.712 2.75068 127.175C3.53754 128.102 4.68725 129.432 6.16829 131.082C9.12874 134.38 13.4221 138.967 18.796 144.173C29.5072 154.549 44.6805 167.551 62.2862 177.666C79.8355 187.749 100.363 195.286 121.587 193.895C143.133 192.483 164.416 181.933 183.224 157.752ZM19.7331 135.578C11.5398 127.318 6.7723 121.426 6.7723 121.426C6.7723 121.426 6.77254 121.426 6.77302 121.427C7.35915 122.15 106.978 244.747 177.877 153.591C203.176 114.976 199.398 86.8332 185.498 66.898C199.399 86.8334 203.179 114.977 177.878 153.594C122.297 225.056 49.0637 165.147 19.7331 135.578Z" fill="url(#paint0_linear_1184_12143)"/>
<path fill-rule="evenodd" clip-rule="evenodd" d="M79.5595 89.8924C84.1456 81.4445 93.0943 75.709 103.383 75.709C117.003 75.709 128.275 85.761 130.186 98.8511C136.312 119.259 107.312 143.745 80.0172 143.745C55.9776 143.745 16.3492 125.794 32.6118 109.884C37.6252 104.979 43.2218 105.005 49.2196 105.032C53.6477 105.052 58.2945 105.073 63.0867 103.112C68.9224 100.724 72.7702 96.7775 76.4676 92.9857C77.4967 91.9303 78.5141 90.8869 79.5595 89.8924Z" fill="#A78F72"/>
<path d="M164.06 93.6916C158.45 93.6916 153.902 89.1436 153.902 83.5333C153.902 77.923 158.45 73.375 164.06 73.375C169.671 73.375 174.219 77.923 174.219 83.5333C174.219 89.1436 169.671 93.6916 164.06 93.6916Z" fill="#161619"/>
<defs>
<linearGradient id="paint0_linear_1184_12143" x1="82.8953" y1="89.6533" x2="174.924" y2="170.321" gradientUnits="userSpaceOnUse">
<stop stop-color="#D1C2B0"/>
<stop offset="1" stop-color="#FBEDDD"/>
</linearGradient>
</defs>
</svg>
