<?xml version="1.0" standalone="no"?>
<!DOCTYPE svg PUBLIC "-//W3C//DTD SVG 20010904//EN"
 "http://www.w3.org/TR/2001/REC-SVG-20010904/DTD/svg10.dtd">
<svg version="1.0" xmlns="http://www.w3.org/2000/svg"
 width="1486.000000pt" height="1190.000000pt" viewBox="0 0 1486.000000 1190.000000"
 preserveAspectRatio="xMidYMid meet">
<metadata>
Created by potrace 1.15, written by Peter Selinger 2001-2017
</metadata>
<g transform="translate(0.000000,1190.000000) scale(0.100000,-0.100000)"
fill="#000000" stroke="none">
<path d="M0 5950 l0 -5950 7430 0 7430 0 0 5950 0 5950 -7430 0 -7430 0 0
-5950z m6980 3621 c460 -62 833 -163 1380 -373 741 -285 1324 -439 2020 -532
540 -73 1193 -87 1583 -35 89 12 121 0 133 -47 14 -57 -1 -68 -289 -209 -393
-193 -664 -306 -880 -369 -45 -14 -305 -94 -579 -180 -273 -85 -527 -165 -565
-176 -37 -12 -223 -73 -413 -135 -613 -202 -899 -274 -1268 -321 -155 -19
-471 -22 -602 -5 -504 66 -929 288 -1301 679 -175 184 -419 508 -419 557 0 54
69 91 108 58 11 -10 59 -71 104 -135 281 -394 587 -673 913 -833 183 -90 326
-135 535 -170 112 -19 474 -33 483 -18 3 5 -228 96 -514 203 -359 134 -525
200 -535 214 -22 32 -17 72 12 95 15 12 32 21 39 21 6 0 276 -99 600 -220 324
-122 609 -225 633 -231 88 -19 219 -13 335 16 l109 28 -34 14 c-18 8 -287 118
-598 244 -311 127 -573 238 -582 246 -28 25 -23 78 8 102 15 12 32 21 39 21 6
0 166 -63 356 -141 998 -407 985 -402 1064 -401 88 2 200 28 372 86 72 25 171
57 220 72 48 15 84 28 78 30 -5 2 -363 100 -794 218 -457 126 -792 222 -802
232 -48 44 0 132 63 118 16 -3 427 -115 914 -249 l884 -243 331 103 c182 57
333 105 335 107 3 4 -463 109 -1476 334 -274 61 -338 79 -353 96 -25 30 -18
76 15 101 l27 20 208 -46 c114 -25 571 -127 1015 -227 444 -99 822 -180 840
-180 52 0 207 45 367 107 144 55 428 180 506 221 l40 22 -185 -4 c-987 -19
-2083 190 -3120 596 -433 170 -781 273 -1120 332 -295 51 -455 66 -725 66
-478 1 -885 -85 -1215 -256 l-87 -45 -114 55 c-63 30 -148 64 -189 75 -303 82
-608 20 -859 -174 -209 -160 -319 -368 -431 -813 -22 -89 -57 -216 -79 -284
-78 -249 -58 -475 51 -573 37 -34 41 -35 91 -28 84 13 217 8 287 -11 188 -49
329 -168 486 -409 142 -220 211 -313 287 -390 317 -319 774 -545 1430 -707
215 -53 378 -83 545 -100 134 -13 480 -13 607 0 154 16 179 19 344 52 924 181
1871 787 2619 1676 110 130 129 142 180 106 35 -24 29 -72 -16 -133 -140 -186
-499 -555 -732 -753 -403 -342 -838 -619 -1245 -793 -60 -26 -114 -51 -119
-56 -5 -4 129 -239 305 -536 l314 -528 2 -525 c2 -288 4 -527 5 -530 6 -12
128 -60 213 -84 116 -33 229 -45 385 -41 250 7 397 50 638 187 179 102 304
157 429 190 103 26 141 31 295 35 351 11 508 -29 842 -213 257 -143 359 -176
584 -195 84 -7 146 -16 160 -25 30 -19 30 -76 1 -105 -20 -20 -28 -21 -138
-16 -249 13 -428 70 -681 217 -271 158 -438 202 -735 195 -264 -6 -386 -41
-645 -185 -319 -178 -481 -226 -776 -229 -295 -4 -490 50 -780 215 -82 46
-182 98 -222 115 -236 98 -553 116 -827 48 -82 -21 -219 -84 -450 -209 -241
-130 -421 -172 -715 -166 -304 6 -447 49 -765 232 -248 142 -455 193 -735 180
-248 -11 -369 -48 -636 -197 -189 -105 -268 -140 -396 -174 -252 -66 -567 -60
-808 17 -88 28 -162 63 -442 212 -177 94 -310 131 -510 143 -86 5 -114 10
-134 25 -31 25 -32 70 -3 99 21 21 28 22 158 16 237 -11 389 -59 661 -211 253
-141 360 -177 576 -196 212 -18 422 7 584 71 41 17 143 68 226 114 243 137
365 184 544 211 177 26 483 14 616 -25 32 -9 134 47 994 549 l185 108 -2 48
c-5 112 -43 783 -48 834 -2 30 -4 65 -4 78 -1 16 -7 22 -24 22 -82 0 -535 103
-763 173 -546 169 -996 430 -1255 729 -37 43 -129 171 -204 285 -152 230 -232
319 -329 367 -132 65 -276 75 -413 27 -107 -37 -193 -92 -388 -247 -410 -326
-770 -663 -1018 -950 -48 -56 -94 -105 -103 -108 -49 -19 -94 13 -94 67 0 25
31 75 142 232 191 271 406 556 618 820 319 398 399 514 500 720 81 165 120
277 194 560 65 249 112 387 171 504 157 312 425 518 778 598 104 23 326 23
437 -1 98 -21 201 -57 281 -97 l56 -28 99 49 c205 102 538 192 829 224 201 22
653 15 865 -13z m-2740 -950 c93 -66 92 -184 -2 -255 -19 -14 -43 -20 -78 -20
-57 0 -91 20 -128 75 -20 28 -23 43 -20 87 4 45 10 59 40 89 54 54 131 64 188
24z m-1895 -5566 c180 -15 340 -72 587 -208 309 -171 385 -192 703 -192 149 0
238 4 275 13 148 36 251 80 448 191 275 156 451 204 747 204 183 0 311 -19
450 -65 102 -34 154 -59 340 -163 268 -149 397 -184 685 -185 282 -1 413 36
697 196 162 91 231 123 341 158 132 41 259 58 432 58 264 0 438 -42 655 -156
66 -35 167 -89 225 -119 196 -104 342 -138 590 -138 291 0 409 34 728 213 278
156 443 200 747 200 295 1 483 -52 761 -213 251 -145 398 -191 643 -203 74 -3
97 -8 111 -22 31 -32 30 -74 -2 -104 -27 -25 -100 -27 -258 -5 -203 29 -323
73 -570 211 -256 143 -383 182 -625 191 -302 11 -465 -29 -740 -183 -223 -124
-320 -166 -460 -199 -113 -26 -266 -38 -405 -32 -263 12 -418 59 -676 203
-331 185 -470 222 -789 211 -251 -10 -361 -43 -622 -188 -89 -50 -198 -106
-242 -125 -156 -68 -366 -107 -556 -103 -292 5 -467 55 -739 208 -172 98 -250
134 -358 165 -123 36 -258 49 -421 43 -249 -9 -372 -47 -648 -199 -191 -106
-281 -145 -409 -177 -286 -70 -638 -48 -891 58 -41 17 -144 70 -229 117 -266
147 -393 189 -613 201 -108 6 -124 9 -144 29 -36 36 -26 95 20 114 21 9 41 8
212 -5z"/>
<path d="M3295 7517 c-61 -100 -177 -257 -369 -497 -99 -124 -184 -232 -190
-240 -6 -8 25 16 69 54 268 230 515 422 604 473 l49 27 -33 48 c-33 47 -75
145 -75 173 0 34 -20 20 -55 -38z"/>
<path d="M8120 5818 c-188 -67 -438 -125 -686 -160 -130 -18 -207 -22 -423
-22 l-263 -1 6 -145 c4 -80 9 -174 12 -210 11 -151 34 -566 34 -619 0 -43 -5
-62 -17 -73 -10 -9 -254 -152 -543 -318 -289 -167 -531 -307 -537 -313 -9 -7
35 -36 159 -105 307 -170 429 -205 713 -205 277 0 412 37 674 183 238 132 330
171 493 207 118 26 486 26 606 0 125 -27 241 -69 357 -131 l105 -55 0 468 0
467 -137 231 c-76 127 -217 364 -313 527 -96 163 -177 295 -180 294 -3 0 -30
-9 -60 -20z"/>
</g>
</svg>
