<svg width="642" height="140" viewBox="0 0 642 140" fill="none" xmlns="http://www.w3.org/2000/svg">
<path d="M581.45 76.4105C581.45 60.0838 591.068 47.7871 605.959 47.7871C612.578 47.7871 618.162 50.6805 622.299 55.9505V29.8071H636.57V104.001H623.437V96.0438C619.093 101.831 613.095 105.034 605.959 105.034C591.068 105.034 581.45 92.5305 581.45 76.4105ZM596.238 76.4105C596.238 86.7438 602.133 92.2205 609.165 92.2205C616.301 92.2205 622.196 86.6405 622.196 76.2038C622.196 65.7671 616.198 60.4971 609.165 60.4971C602.133 60.4971 596.238 65.8705 596.238 76.4105Z" fill="#0D1117"/>
<path d="M557.634 77.2369V104H543.259V48.8202H556.496V59.4635C560.53 52.4369 569.113 48.2002 578.007 48.2002V63.0802C565.804 62.1502 557.634 65.0435 557.634 77.2369Z" fill="#0D1117"/>
<path d="M532.743 36.0071C532.743 40.8638 528.813 44.4805 523.125 44.4805C517.541 44.4805 513.611 40.8638 513.611 36.0071C513.611 30.9438 517.541 27.3271 523.125 27.3271C528.813 27.3271 532.743 30.9438 532.743 36.0071ZM530.467 104.001H516.093V48.8205H530.467V104.001Z" fill="#0D1117"/>
<path d="M506.882 76.4105C506.882 92.5305 497.264 105.034 482.372 105.034C475.237 105.034 469.239 101.831 464.999 96.0438V104.001H451.762V29.8071H466.136V55.9505C470.17 50.5771 475.754 47.7871 482.372 47.7871C497.264 47.7871 506.882 60.0838 506.882 76.4105ZM492.093 76.4105C492.093 65.8705 486.199 60.4971 479.167 60.4971C472.238 60.4971 466.24 65.7671 466.24 76.2038C466.24 86.6405 472.031 92.2205 479.167 92.2205C486.199 92.2205 492.093 86.7438 492.093 76.4105Z" fill="#0D1117"/>
<path d="M415.867 104.93C399.32 104.93 388.255 93.4604 388.255 76.2038C388.255 59.7738 399.734 47.7871 415.66 47.7871C433.137 47.7871 444.719 61.9438 442.134 79.9238H402.94C403.87 88.9138 408.214 93.8738 415.556 93.8738C421.865 93.8738 426.105 90.7738 427.759 85.2971H442.031C438.928 97.8004 429.31 104.93 415.867 104.93ZM415.35 58.3271C408.628 58.3271 404.388 62.6671 403.147 70.8304H426.932C426.518 63.1838 422.175 58.3271 415.35 58.3271Z" fill="#0D1117"/>
<path d="M364.439 77.2369V104H350.064V48.8202H363.301V59.4635C367.334 52.4369 375.918 48.2002 384.811 48.2002V63.0802C372.608 62.1502 364.439 65.0435 364.439 77.2369Z" fill="#0D1117"/>
<path d="M312.865 105.034C296.836 105.034 284.84 92.4271 284.84 76.4104C284.84 60.2904 296.836 47.7871 312.865 47.7871C328.894 47.7871 340.891 60.2904 340.891 76.4104C340.891 92.4271 328.894 105.034 312.865 105.034ZM312.865 92.3238C320.001 92.3238 326.102 86.6404 326.102 76.4104C326.102 66.1804 320.001 60.6004 312.865 60.6004C305.73 60.6004 299.628 66.1804 299.628 76.4104C299.628 86.6404 305.73 92.3238 312.865 92.3238Z" fill="#0D1117"/>
<path d="M241.533 73.9305V104.001H227.158V29.8071H241.533V56.0538C245.359 50.9905 250.116 47.7871 257.355 47.7871C268.421 47.7871 276.073 55.0205 276.073 68.3505V104.001H261.802V73.2071C261.802 65.0438 258.596 60.4971 252.081 60.4971C246.393 60.4971 241.533 65.0438 241.533 73.9305Z" fill="#0D1117"/>
<path d="M217.344 86.3305C217.344 97.9038 208.554 105.034 192.835 105.034C177.116 105.034 168.326 97.4905 167.188 85.1938H180.942C181.046 90.8771 185.906 94.4938 193.042 94.4938C198.626 94.4938 202.866 92.7371 202.866 88.8104C202.866 85.2971 200.591 83.8504 195.317 82.8171L185.389 80.9571C175.461 79.2004 169.463 73.7238 169.463 65.1471C169.463 54.9171 178.253 47.7871 192.008 47.7871C205.865 47.7871 215.379 55.1238 216.413 67.0071H202.659C202.142 61.6338 198.109 58.3271 192.008 58.3271C186.733 58.3271 183.217 60.2904 183.217 63.8038C183.217 67.1104 185.492 68.4538 190.456 69.3838L201.108 71.3471C211.863 73.4138 217.344 78.3738 217.344 86.3305Z" fill="#0D1117"/>
<g clip-path="url(#clip0_1_21)">
<path d="M127.26 68.942L115.799 57.4907C116.454 59.7933 118.034 66.8796 118.125 68.0136L127.26 68.942Z" fill="#A79772"/>
<path fill-rule="evenodd" clip-rule="evenodd" d="M107.355 99.9144L107.451 99.7921L107.535 99.6624C116.53 85.9447 119.541 74.0318 118.387 63.7637C117.232 53.491 111.974 45.4561 105.581 39.3697C92.9631 27.3559 75.2247 22.2621 72.2649 21.4673C71.443 21.2464 70.4683 21.2689 69.5375 21.7069C68.6344 22.1319 68.0286 22.8269 67.6816 23.5185C67.0126 24.8515 67.1638 26.374 67.9078 27.5227L70.5382 31.5822C69.7902 31.7118 69.0276 31.9192 68.2531 32.2169C62.5258 34.4179 57.9392 40.9536 54.8074 52.6895C51.2603 65.9805 44.3068 72.7489 37.6053 76.3067C30.7573 79.9418 23.837 80.3932 20.2967 80.3932C17.2845 80.3932 14.7996 79.4531 13.0385 78.4824C12.1619 77.9994 11.4879 77.5203 11.0479 77.177C10.829 77.0057 10.671 76.8709 10.5785 76.7887C10.5323 76.7475 10.5024 76.7205 10.49 76.7086L10.4855 76.7041C9.04195 75.2989 6.75173 75.2561 5.25576 76.61C3.75301 77.9695 3.57533 80.2653 4.85074 81.8402C4.85074 81.8402 4.8513 81.8413 4.853 81.843L4.85638 81.8475L4.86766 81.861L4.90489 81.9067C4.93705 81.9461 4.98274 82.0014 5.0414 82.0724C5.15873 82.2139 5.32965 82.4185 5.55191 82.6794C5.99585 83.202 6.64399 83.9516 7.47941 84.8817C9.14969 86.7406 11.5713 89.3261 14.6028 92.2605C20.6448 98.109 29.2043 105.438 39.1352 111.139C49.0344 116.822 60.6141 121.071 72.5864 120.287C84.7404 119.491 96.7459 113.544 107.355 99.9144Z" fill="url(#paint0_linear_1_21)"/>
<path fill-rule="evenodd" clip-rule="evenodd" d="M107.355 99.9144L107.451 99.7921L107.535 99.6624C116.53 85.9447 119.541 74.0318 118.387 63.7637C117.232 53.491 111.974 45.4561 105.581 39.3697C92.9631 27.3559 75.2247 22.2621 72.2649 21.4673C71.443 21.2464 70.4683 21.2689 69.5375 21.7069C68.6344 22.1319 68.0286 22.8269 67.6816 23.5185C67.0126 24.8515 67.1638 26.374 67.9078 27.5227L70.5382 31.5822C69.7902 31.7118 69.0276 31.9192 68.2531 32.2169C62.5258 34.4179 57.9392 40.9536 54.8074 52.6895C51.2603 65.9805 44.3068 72.7489 37.6053 76.3067C30.7573 79.9418 23.837 80.3932 20.2967 80.3932C17.2845 80.3932 14.7996 79.4531 13.0385 78.4824C12.1619 77.9994 11.4879 77.5203 11.0479 77.177C10.829 77.0057 10.671 76.8709 10.5785 76.7887C10.5323 76.7475 10.5024 76.7205 10.49 76.7086L10.4855 76.7041C9.04195 75.2989 6.75173 75.2561 5.25576 76.61C3.75301 77.9695 3.57533 80.2653 4.85074 81.8402C4.85074 81.8402 4.8513 81.8413 4.853 81.843L4.85638 81.8475L4.86766 81.861L4.90489 81.9067C4.93705 81.9461 4.98274 82.0014 5.0414 82.0724C5.15873 82.2139 5.32965 82.4185 5.55191 82.6794C5.99585 83.202 6.64399 83.9516 7.47941 84.8817C9.14969 86.7406 11.5713 89.3261 14.6028 92.2605C20.6448 98.109 29.2043 105.438 39.1352 111.139C49.0344 116.822 60.6141 121.071 72.5864 120.287C84.7404 119.491 96.7459 113.544 107.355 99.9144Z" fill="url(#paint1_linear_1_21)"/>
<path fill-rule="evenodd" clip-rule="evenodd" d="M48.8788 61.6645C51.4663 56.9033 56.5138 53.6702 62.3177 53.6702C70.0007 53.6702 76.3591 59.3361 77.4371 66.7143C80.8927 78.2175 64.534 92.0192 49.1371 92.0192C35.5769 92.0192 13.2225 81.901 22.3963 72.9332C25.2241 70.1684 28.3813 70.1831 31.7648 70.1983C34.2626 70.2096 36.8833 70.2214 39.587 69.1161C42.8785 67.7701 45.0491 65.5459 47.1352 63.4085C47.7156 62.8133 48.2893 62.2254 48.8788 61.6645Z" fill="#A78F72"/>
<path d="M96.5451 63.8066C93.3806 63.8066 90.8151 61.2431 90.8151 58.0804C90.8151 54.9182 93.3806 52.3547 96.5451 52.3547C99.7102 52.3547 102.276 54.9182 102.276 58.0804C102.276 61.2431 99.7102 63.8066 96.5451 63.8066Z" fill="#161619"/>
</g>
<defs>
<linearGradient id="paint0_linear_1_21" x1="50.7607" y1="61.53" x2="102.639" y2="107.039" gradientUnits="userSpaceOnUse">
<stop stop-color="#D1C2B0"/>
<stop offset="1" stop-color="#FBEDDD"/>
</linearGradient>
<linearGradient id="paint1_linear_1_21" x1="262.065" y1="61.5298" x2="282.796" y2="161.894" gradientUnits="userSpaceOnUse">
<stop stop-color="#D1C2B0"/>
<stop offset="1" stop-color="#FBEDDD"/>
</linearGradient>
<clipPath id="clip0_1_21">
<rect width="123.26" height="99.05" fill="white" transform="translate(4 21.3301)"/>
</clipPath>
</defs>
</svg>
