<svg width="642" height="140" viewBox="0 0 642 140" fill="none" xmlns="http://www.w3.org/2000/svg">
<path d="M577.45 65.4105C577.45 49.0838 587.068 36.7871 601.959 36.7871C608.578 36.7871 614.162 39.6805 618.299 44.9505V18.8071H632.57V93.0005H619.437V85.0438C615.093 90.8305 609.095 94.0338 601.959 94.0338C587.068 94.0338 577.45 81.5305 577.45 65.4105ZM592.238 65.4105C592.238 75.7438 598.133 81.2205 605.165 81.2205C612.301 81.2205 618.196 75.6405 618.196 65.2038C618.196 54.7671 612.198 49.4971 605.165 49.4971C598.133 49.4971 592.238 54.8705 592.238 65.4105Z" fill="#0D1117"/>
<path d="M553.634 66.2369V93.0002H539.259V37.8202H552.496V48.4635C556.53 41.4369 565.113 37.2002 574.007 37.2002V52.0802C561.804 51.1502 553.634 54.0435 553.634 66.2369Z" fill="#0D1117"/>
<path d="M528.743 25.0071C528.743 29.8638 524.813 33.4805 519.125 33.4805C513.541 33.4805 509.611 29.8638 509.611 25.0071C509.611 19.9438 513.541 16.3271 519.125 16.3271C524.813 16.3271 528.743 19.9438 528.743 25.0071ZM526.467 93.0005H512.093V37.8205H526.467V93.0005Z" fill="#0D1117"/>
<path d="M502.882 65.4105C502.882 81.5305 493.264 94.0338 478.372 94.0338C471.237 94.0338 465.239 90.8305 460.999 85.0438V93.0005H447.762V18.8071H462.136V44.9505C466.17 39.5771 471.754 36.7871 478.372 36.7871C493.264 36.7871 502.882 49.0838 502.882 65.4105ZM488.093 65.4105C488.093 54.8705 482.199 49.4971 475.167 49.4971C468.238 49.4971 462.24 54.7671 462.24 65.2038C462.24 75.6405 468.031 81.2205 475.167 81.2205C482.199 81.2205 488.093 75.7438 488.093 65.4105Z" fill="#0D1117"/>
<path d="M411.867 93.9304C395.32 93.9304 384.255 82.4604 384.255 65.2038C384.255 48.7738 395.734 36.7871 411.66 36.7871C429.137 36.7871 440.719 50.9438 438.134 68.9238H398.94C399.87 77.9138 404.214 82.8738 411.556 82.8738C417.865 82.8738 422.105 79.7738 423.759 74.2971H438.031C434.928 86.8004 425.31 93.9304 411.867 93.9304ZM411.35 47.3271C404.628 47.3271 400.388 51.6671 399.147 59.8304H422.932C422.518 52.1838 418.175 47.3271 411.35 47.3271Z" fill="#0D1117"/>
<path d="M360.439 66.2369V93.0002H346.064V37.8202H359.301V48.4635C363.334 41.4369 371.918 37.2002 380.811 37.2002V52.0802C368.608 51.1502 360.439 54.0435 360.439 66.2369Z" fill="#0D1117"/>
<path d="M308.865 94.0338C292.836 94.0338 280.84 81.4271 280.84 65.4104C280.84 49.2904 292.836 36.7871 308.865 36.7871C324.894 36.7871 336.891 49.2904 336.891 65.4104C336.891 81.4271 324.894 94.0338 308.865 94.0338ZM308.865 81.3238C316.001 81.3238 322.102 75.6404 322.102 65.4104C322.102 55.1804 316.001 49.6004 308.865 49.6004C301.73 49.6004 295.628 55.1804 295.628 65.4104C295.628 75.6404 301.73 81.3238 308.865 81.3238Z" fill="#0D1117"/>
<path d="M237.533 62.9305V93.0005H223.158V18.8071H237.533V45.0538C241.359 39.9905 246.116 36.7871 253.355 36.7871C264.421 36.7871 272.073 44.0205 272.073 57.3505V93.0005H257.802V62.2071C257.802 54.0438 254.596 49.4971 248.081 49.4971C242.393 49.4971 237.533 54.0438 237.533 62.9305Z" fill="#0D1117"/>
<path d="M213.344 75.3305C213.344 86.9038 204.554 94.0338 188.835 94.0338C173.116 94.0338 164.326 86.4905 163.188 74.1938H176.942C177.046 79.8771 181.906 83.4938 189.042 83.4938C194.626 83.4938 198.866 81.7371 198.866 77.8104C198.866 74.2971 196.591 72.8504 191.317 71.8171L181.389 69.9571C171.461 68.2004 165.463 62.7238 165.463 54.1471C165.463 43.9171 174.253 36.7871 188.008 36.7871C201.865 36.7871 211.379 44.1238 212.413 56.0071H198.659C198.142 50.6338 194.109 47.3271 188.008 47.3271C182.733 47.3271 179.217 49.2904 179.217 52.8038C179.217 56.1104 181.492 57.4538 186.456 58.3838L197.108 60.3471C207.863 62.4138 213.344 67.3738 213.344 75.3305Z" fill="#0D1117"/>
<path d="M123.257 57.9433L111.797 46.4922C112.452 48.7949 114.032 55.8811 114.123 57.015L123.257 57.9433Z" fill="#B39E88"/>
<path fill-rule="evenodd" clip-rule="evenodd" d="M103.353 88.9145L103.448 88.7923L103.533 88.6629C112.527 74.9459 115.539 63.033 114.384 52.7652C113.229 42.4933 107.971 34.4587 101.579 28.3726C88.9611 16.359 71.2228 11.2653 68.2635 10.4707C67.4415 10.25 66.4669 10.2722 65.5359 10.7104C64.6331 11.1351 64.027 11.8302 63.6799 12.5218C63.0109 13.8547 63.1621 15.3773 63.9063 16.5258L66.5366 20.5853C65.7889 20.7149 65.0259 20.9224 64.2516 21.22C58.5245 23.421 53.9378 29.9561 50.8059 41.6915C47.259 54.982 40.3059 61.7505 33.6045 65.3078C26.7566 68.9429 19.8365 69.3944 16.2964 69.3944C13.284 69.3944 10.7991 68.4541 9.03838 67.4836C8.16186 67.0004 7.48753 66.5218 7.04755 66.1782C6.82856 66.0072 6.67073 65.872 6.57813 65.7899C6.53192 65.749 6.50227 65.7214 6.48968 65.7097L6.48523 65.7055C5.04164 64.3005 2.75142 64.2573 1.25557 65.6111C-0.246791 66.9709 -0.424642 69.2664 0.850376 70.841L3.81994 68.4403C0.850376 70.8411 0.851426 70.8424 0.85269 70.8439L0.8563 70.8484L0.867397 70.862L0.905008 70.908C0.936892 70.947 0.982374 71.0023 1.04117 71.0732C1.15876 71.2151 1.32964 71.4195 1.5516 71.6807C1.99545 72.2029 2.64399 72.9525 3.4794 73.8825C5.14934 75.7414 7.57115 78.3268 10.6025 81.2611C16.6444 87.1097 25.2033 94.4378 35.1343 100.139C45.0336 105.822 56.6129 110.071 68.585 109.287C80.7387 108.491 92.7434 102.544 103.353 88.9145ZM11.131 76.4168C6.50936 71.7613 3.81994 68.4403 3.81994 68.4403C4.15227 68.8498 60.3447 137.948 100.336 86.5697C114.753 64.5831 112.432 48.62 104.394 37.3644C112.432 48.6201 114.755 64.5836 100.337 86.5712C68.9851 126.85 27.6759 93.0827 11.131 76.4168Z" fill="url(#paint0_linear_8232_20385)"/>
<path fill-rule="evenodd" clip-rule="evenodd" d="M73.4366 55.7156C76.8925 67.2185 60.5337 81.0194 45.1375 81.0194C31.5772 81.0194 9.22359 70.9014 18.3971 61.9341C21.2251 59.1697 24.3819 59.184 27.7652 59.1993C30.263 59.2106 32.8841 59.2225 35.5873 58.1171C38.8791 56.771 41.0496 54.5469 43.1352 52.4097C43.7157 51.8148 44.2897 51.2267 44.8793 50.6662C47.4662 45.9046 52.514 42.6719 58.3174 42.6719C66.0003 42.6719 72.3587 48.3375 73.4366 55.7156Z" fill="#B39E88"/>
<path d="M92.5417 52.8071C89.3772 52.8071 86.8115 50.2437 86.8115 47.0815C86.8115 43.9194 89.3772 41.356 92.5417 41.356C95.7062 41.356 98.2715 43.9194 98.2715 47.0815C98.2715 50.2437 95.7062 52.8071 92.5417 52.8071Z" fill="#161619"/>
<defs>
<linearGradient id="paint0_linear_8232_20385" x1="46.7596" y1="50.532" x2="98.6354" y2="96.0398" gradientUnits="userSpaceOnUse">
<stop stop-color="#D6C7B6"/>
<stop offset="1" stop-color="#FFEDD9"/>
</linearGradient>
</defs>
</svg>
